<svg width="24" height="24" viewBox="0 0 24 24" fill="none" xmlns="http://www.w3.org/2000/svg">
  <path d="M8.5 13H14.5M8.5 16H11.5M13.5 7.5H10.5C9.94772 7.5 9.5 7.94772 9.5 8.5V9.5C9.5 10.0523 9.94772 10.5 10.5 10.5H13.5C14.0523 10.5 14.5 10.0523 14.5 9.5V8.5C14.5 7.94772 14.0523 7.5 13.5 7.5Z" stroke="#8F9098" stroke-width="1.5" stroke-linecap="round" stroke-linejoin="round"/>
  <path d="M8 4.5H14.0858C14.351 4.5 14.6054 4.60536 14.7929 4.79289L17.7071 7.70711C17.8946 7.89464 18 8.149 18 8.41421V19C18 19.8284 17.3284 20.5 16.5 20.5H8C7.17157 20.5 6.5 19.8284 6.5 19V6C6.5 5.17157 7.17157 4.5 8 4.5Z" stroke="#8F9098" stroke-width="1.5"/>
  <path d="M14 4.5V7C14 7.55228 14.4477 8 15 8H17.5" stroke="#8F9098" stroke-width="1.5"/>
</svg>
