<svg preserveAspectRatio="none" width="100%" height="100%" overflow="visible" style="display: block;" viewBox="0 0 48 48" fill="none" xmlns="http://www.w3.org/2000/svg">
<g id="Icon">
<path id="Vector" d="M12 44C10.9391 44 9.92172 43.5786 9.17157 42.8284C8.42143 42.0783 8 41.0609 8 40V8C8 6.93913 8.42143 5.92172 9.17157 5.17157C9.92172 4.42143 10.9391 4 12 4H28C28.6331 3.99897 29.2602 4.1232 29.8451 4.36554C30.43 4.60787 30.9611 4.96352 31.408 5.412L38.584 12.588C39.0337 13.035 39.3903 13.5667 39.6334 14.1523C39.8764 14.738 40.001 15.3659 40 16V40C40 41.0609 39.5786 42.0783 38.8284 42.8284C38.0783 43.5786 37.0609 44 36 44H12Z" stroke="currentColor" stroke-width="4" stroke-linecap="round" stroke-linejoin="round"/>
<path id="Vector_2" d="M28 4V14C28 14.5304 28.2107 15.0391 28.5858 15.4142C28.9609 15.7893 29.4696 16 30 16H40" stroke="currentColor" stroke-width="4" stroke-linecap="round" stroke-linejoin="round"/>
<path id="Vector_3" d="M18 30L22 34L30 26" stroke="currentColor" stroke-width="4" stroke-linecap="round" stroke-linejoin="round"/>
</g>
</svg>
